<?xml version="1.0" encoding="UTF-8" standalone="no" ?>
<!DOCTYPE svg PUBLIC "-//W3C//DTD SVG 1.1//EN" "http://www.w3.org/Graphics/SVG/1.1/DTD/svg11.dtd">
<svg xmlns="http://www.w3.org/2000/svg" xmlns:xlink="http://www.w3.org/1999/xlink" version="1.1" width="1080" height="1080" viewBox="0 0 1080 1080" xml:space="preserve">
<desc>Created with Fabric.js 5.2.4</desc>
<defs>
</defs>
<rect x="0" y="0" width="100%" height="100%" fill="transparent"></rect>
<g transform="matrix(1 0 0 1 540 540)" id="8fb9acd7-0bde-46e7-97bb-2e460ece7995"  >
</g>
<g transform="matrix(1 0 0 1 540 540)" id="c359cc4e-3658-488c-af71-c4e508cef35c"  >
<rect style="stroke: none; stroke-width: 1; stroke-dasharray: none; stroke-linecap: butt; stroke-dashoffset: 0; stroke-linejoin: miter; stroke-miterlimit: 4; fill: rgb(255,255,255); fill-rule: nonzero; opacity: 1; visibility: hidden;" vector-effect="non-scaling-stroke"  x="-540" y="-540" rx="0" ry="0" width="1080" height="1080" />
</g>
<g transform="matrix(1 0 0 1 453.46 552.18)"  >
<path style="stroke: rgb(150,51,255); stroke-width: 2; stroke-dasharray: none; stroke-linecap: butt; stroke-dashoffset: 0; stroke-linejoin: miter; stroke-miterlimit: 4; fill: none; fill-rule: nonzero; opacity: 1;" vector-effect="non-scaling-stroke"  transform=" translate(-335.87, -223.6)" d="M 40.3467 291.575 C 61.9109 385.406 183.99 406.744 368.205 364.407 C 553.7 321.777 652.936 249.578 631.372 155.746 C 609.807 61.9156 489.008 40.2842 303.513 82.9144 C 119.297 125.251 18.7826 197.744 40.3467 291.575 Z" stroke-linecap="round" />
</g>
<g transform="matrix(1 0 0 1 717.59 428.58)"  >
<path style="stroke: none; stroke-width: 1; stroke-dasharray: none; stroke-linecap: butt; stroke-dashoffset: 0; stroke-linejoin: miter; stroke-miterlimit: 4; fill: rgb(255,164,255); fill-rule: evenodd; opacity: 1;" vector-effect="non-scaling-stroke"  transform=" translate(-600, -100)" d="M 589.032 93.8931 C 588.637 87.333 590.588 83.0053 595.121 81.7907 C 599.652 80.5766 603.504 83.3463 606.442 89.2201 C 612.862 88.8547 617.039 90.7534 618.209 95.1208 C 619.379 99.4864 616.714 103.218 610.975 106.111 C 611.38 112.695 609.419 116.993 604.879 118.209 C 600.337 119.426 596.489 116.682 593.547 110.773 C 587.158 111.126 582.958 109.236 581.791 104.879 C 580.623 100.52 583.318 96.7831 589.032 93.8931 Z" stroke-linecap="round" />
</g>
<g transform="matrix(1 0 0 1 717.59 428.58)"  >
<path style="stroke: none; stroke-width: 1; stroke-dasharray: none; stroke-linecap: butt; stroke-dashoffset: 0; stroke-linejoin: miter; stroke-miterlimit: 4; fill: rgb(0,0,0); fill-rule: nonzero; opacity: 1;" vector-effect="non-scaling-stroke"  transform=" translate(-600, -100)" d="M 595.121 81.7907 L 595.638 83.7225 L 595.121 81.7907 Z M 589.032 93.8931 L 589.934 95.6778 L 591.107 95.0847 L 591.028 93.7729 L 589.032 93.8931 Z M 606.442 89.2201 L 604.653 90.1147 L 605.242 91.2916 L 606.555 91.2168 L 606.442 89.2201 Z M 610.975 106.111 L 610.075 104.325 L 608.898 104.919 L 608.979 106.234 L 610.975 106.111 Z M 593.547 110.773 L 595.337 109.882 L 594.751 108.704 L 593.437 108.776 L 593.547 110.773 Z M 581.791 104.879 L 579.859 105.397 L 581.791 104.879 Z M 594.603 79.8588 C 591.76 80.6206 589.683 82.4022 588.432 84.9583 C 587.219 87.4371 586.827 90.5437 587.035 94.0133 L 591.028 93.7729 C 590.842 90.6824 591.228 88.3451 592.025 86.7164 C 592.784 85.165 593.948 84.1754 595.638 83.7225 L 594.603 79.8588 Z M 608.23 88.3255 C 606.677 85.2187 604.784 82.7265 602.495 81.1876 C 600.134 79.6008 597.445 79.0975 594.603 79.8588 L 595.638 83.7225 C 597.328 83.2698 598.83 83.5443 600.263 84.5073 C 601.767 85.5182 603.269 87.3477 604.653 90.1147 L 608.23 88.3255 Z M 620.141 94.6032 C 619.401 91.8421 617.668 89.8194 615.173 88.5991 C 612.757 87.417 609.725 87.03 606.328 87.2233 L 606.555 91.2168 C 609.579 91.0448 611.846 91.4245 613.415 92.1923 C 614.907 92.9219 615.847 94.0321 616.277 95.6384 L 620.141 94.6032 Z M 611.876 107.897 C 614.912 106.366 617.342 104.516 618.842 102.284 C 620.391 99.9806 620.881 97.3631 620.141 94.6032 L 616.277 95.6384 C 616.708 97.2441 616.449 98.6751 615.523 100.052 C 614.549 101.501 612.777 102.963 610.075 104.325 L 611.876 107.897 Z M 605.397 120.141 C 608.237 119.38 610.321 117.61 611.576 115.055 C 612.794 112.578 613.186 109.47 612.972 105.989 L 608.979 106.234 C 609.17 109.336 608.783 111.669 607.986 113.291 C 607.228 114.835 606.061 115.822 604.361 116.277 L 605.397 120.141 Z M 591.757 111.665 C 593.312 114.789 595.206 117.286 597.499 118.824 C 599.865 120.411 602.555 120.902 605.397 120.141 L 604.361 116.277 C 602.661 116.733 601.157 116.461 599.727 115.502 C 598.225 114.495 596.724 112.666 595.337 109.882 L 591.757 111.665 Z M 579.859 105.397 C 580.599 108.158 582.341 110.174 584.834 111.39 C 587.249 112.568 590.276 112.957 593.657 112.77 L 593.437 108.776 C 590.428 108.942 588.161 108.562 586.587 107.795 C 585.091 107.065 584.15 105.957 583.723 104.361 L 579.859 105.397 Z M 588.129 92.1084 C 585.106 93.6375 582.677 95.4881 581.173 97.7166 C 579.621 100.016 579.119 102.634 579.859 105.397 L 583.723 104.361 C 583.295 102.765 583.556 101.335 584.488 99.9541 C 585.468 98.5018 587.244 97.0388 589.934 95.6778 L 588.129 92.1084 Z" stroke-linecap="round" />
</g>
<g transform="matrix(1 0 0 1 449.76 540)"  >
<path style="stroke: rgb(150,51,255); stroke-width: 2; stroke-dasharray: none; stroke-linecap: butt; stroke-dashoffset: 0; stroke-linejoin: miter; stroke-miterlimit: 4; fill: none; fill-rule: nonzero; opacity: 1;" vector-effect="non-scaling-stroke"  transform=" translate(-332.18, -211.42)" d="M 64.23 69.2927 C 21.4289 150.03 100.925 243.886 267.927 332.419 C 436.089 421.567 557.227 434.073 600.028 353.336 C 642.829 272.599 564.492 179.357 396.33 90.2094 C 229.328 1.67649 107.031 -11.4437 64.23 69.2927 Z" stroke-linecap="round" />
</g>
<g transform="matrix(1 0 0 1 198.68 679.67)"  >
<path style="stroke: none; stroke-width: 1; stroke-dasharray: none; stroke-linecap: butt; stroke-dashoffset: 0; stroke-linejoin: miter; stroke-miterlimit: 4; fill: rgb(255,164,255); fill-rule: evenodd; opacity: 1;" vector-effect="non-scaling-stroke"  transform=" translate(-81.09, -351.09)" d="M 70.12 344.982 C 69.7251 338.421 71.6761 334.094 76.2091 332.879 C 80.7401 331.665 84.5923 334.435 87.5299 340.309 C 93.9503 339.943 98.1273 341.842 99.2975 346.209 C 100.467 350.575 97.8018 354.306 92.0638 357.2 C 92.4682 363.783 90.5072 368.081 85.9674 369.298 C 81.4258 370.515 77.5772 367.77 74.6352 361.862 C 68.2459 362.214 64.0464 360.324 62.8789 355.968 C 61.711 351.609 64.4058 347.872 70.12 344.982 Z" stroke-linecap="round" />
</g>
<g transform="matrix(1 0 0 1 198.68 679.67)"  >
<path style="stroke: none; stroke-width: 1; stroke-dasharray: none; stroke-linecap: butt; stroke-dashoffset: 0; stroke-linejoin: miter; stroke-miterlimit: 4; fill: rgb(0,0,0); fill-rule: nonzero; opacity: 1;" vector-effect="non-scaling-stroke"  transform=" translate(-81.09, -351.09)" d="M 76.2091 332.879 L 76.7267 334.811 L 76.2091 332.879 Z M 70.12 344.982 L 71.0227 346.766 L 72.1954 346.173 L 72.1164 344.861 L 70.12 344.982 Z M 87.5299 340.309 L 85.7412 341.203 L 86.3298 342.38 L 87.6436 342.305 L 87.5299 340.309 Z M 92.0638 357.2 L 91.1633 355.414 L 89.9867 356.007 L 90.0675 357.322 L 92.0638 357.2 Z M 74.6352 361.862 L 76.4255 360.97 L 75.839 359.792 L 74.5251 359.865 L 74.6352 361.862 Z M 62.8789 355.968 L 60.9471 356.485 L 62.8789 355.968 Z M 75.6914 330.947 C 72.8486 331.709 70.771 333.491 69.5202 336.047 C 68.3071 338.526 67.9148 341.632 68.1237 345.102 L 72.1164 344.861 C 71.9304 341.771 72.3161 339.434 73.1131 337.805 C 73.8722 336.253 75.0365 335.264 76.7267 334.811 L 75.6914 330.947 Z M 89.3187 339.414 C 87.7649 336.307 85.8722 333.815 83.5828 332.276 C 81.2221 330.689 78.533 330.186 75.6914 330.947 L 76.7267 334.811 C 78.4162 334.358 79.9187 334.633 81.3513 335.596 C 82.8552 336.607 84.3573 338.436 85.7412 341.203 L 89.3187 339.414 Z M 101.229 345.692 C 100.49 342.931 98.7559 340.908 96.2613 339.688 C 93.8448 338.505 90.8128 338.118 87.4163 338.312 L 87.6436 342.305 C 90.6674 342.133 92.934 342.513 94.5037 343.281 C 95.9952 344.01 96.9352 345.121 97.3656 346.727 L 101.229 345.692 Z M 92.9642 358.986 C 95.9999 357.455 98.4303 355.604 99.9307 353.373 C 101.48 351.069 101.969 348.451 101.229 345.692 L 97.3656 346.727 C 97.7959 348.333 97.5373 349.764 96.6114 351.141 C 95.637 352.59 93.8656 354.051 91.1633 355.414 L 92.9642 358.986 Z M 86.485 371.23 C 89.3251 370.469 91.409 368.699 92.6646 366.143 C 93.8819 363.666 94.2739 360.559 94.06 357.077 L 90.0675 357.322 C 90.2581 360.424 89.8717 362.757 89.0747 364.379 C 88.316 365.923 87.1494 366.91 85.4497 367.366 L 86.485 371.23 Z M 72.8448 362.753 C 74.4006 365.878 76.2941 368.375 78.5875 369.913 C 80.9531 371.499 83.6437 371.991 86.485 371.23 L 85.4497 367.366 C 83.7494 367.821 82.245 367.549 80.8154 366.591 C 79.3135 365.583 77.8118 363.754 76.4255 360.97 L 72.8448 362.753 Z M 60.9471 356.485 C 61.687 359.247 63.4296 361.262 65.922 362.478 C 68.3373 363.656 71.3646 364.045 74.7453 363.859 L 74.5251 359.865 C 71.5165 360.031 69.2494 359.651 67.6757 358.883 C 66.1791 358.153 65.2383 357.045 64.8108 355.45 L 60.9471 356.485 Z M 69.2174 343.197 C 66.1941 344.726 63.7648 346.577 62.2609 348.805 C 60.7089 351.105 60.2068 353.723 60.9471 356.485 L 64.8108 355.45 C 64.3831 353.854 64.6444 352.424 65.5765 351.043 C 66.5566 349.59 68.3318 348.127 71.0227 346.766 L 69.2174 343.197 Z" stroke-linecap="round" />
</g>
<g transform="matrix(1 0 0 1 58.14 1158.6)"  >
<path style="stroke: none; stroke-width: 1; stroke-dasharray: none; stroke-linecap: butt; stroke-dashoffset: 0; stroke-linejoin: miter; stroke-miterlimit: 4; fill: rgb(255,164,255); fill-rule: nonzero; opacity: 1;" vector-effect="non-scaling-stroke"  transform=" translate(-441.74, -220.88)" d="M 463.98 260.8 C 473.58 260.8 479.66 250.08 480.94 225.44 L 479.98 225.28 C 478.86 242.56 477.26 246.56 473.9 246.56 C 471.02 246.56 470.54 244 470.54 220.96 C 470.54 214.72 470.86 207.2 471.02 200.64 C 471.02 186.88 462.06 180.16 447.5 180.16 C 431.18 180.16 403.66 192.96 405.1 218.72 L 426.54 215.36 C 425.74 209.44 425.1 201.12 425.1 196.16 C 425.1 188.48 427.98 184.64 435.5 184.64 C 445.26 184.64 447.82 189.44 447.82 220.16 C 419.66 227.36 402.54 234.56 402.54 243.36 C 402.54 252.64 409.74 261.6 422.7 261.6 C 432.94 261.6 443.02 252.48 446.7 242.24 L 447.66 242.4 C 447.98 252.48 452.14 260.8 463.98 260.8 Z M 436.78 245.6 C 427.66 245.6 423.34 240.96 423.34 233.12 C 423.34 228.8 424.78 227.68 428.14 227.04 C 433.1 225.76 439.98 224.96 447.82 224.32 C 447.82 232.64 447.66 235.68 447.02 239.2 C 446.22 243.36 441.74 245.6 436.78 245.6 Z" stroke-linecap="round" />
</g>
<g transform="matrix(1 0 0 1 -52.3 1096.2)"  >
<path style="stroke: none; stroke-width: 1; stroke-dasharray: none; stroke-linecap: butt; stroke-dashoffset: 0; stroke-linejoin: miter; stroke-miterlimit: 4; fill: rgb(255,164,255); fill-rule: nonzero; opacity: 1;" vector-effect="non-scaling-stroke"  transform=" translate(-511.22, -220.16)" d="M 521.859 214.72 C 521.859 203.04 522.019 192.48 522.179 180.48 L 521.539 180.32 C 512.099 184 502.179 186.72 488.899 189.44 L 488.899 190.08 L 494.339 192 C 498.979 193.44 498.979 194.72 498.979 226.24 C 498.979 253.92 498.979 255.68 493.379 257.6 L 488.899 259.36 L 488.899 260 L 533.539 260 L 533.539 259.36 L 526.819 257.44 C 522.339 256 521.859 255.04 521.859 214.72 Z" stroke-linecap="round" />
</g>
<g transform="matrix(1 0 0 1 912.03 428.07)"  >
<path style="stroke: rgb(255,61,62); stroke-width: 0.83; stroke-dasharray: none; stroke-linecap: butt; stroke-dashoffset: 0; stroke-linejoin: miter; stroke-miterlimit: 4; fill: rgb(255,61,62); fill-rule: nonzero; opacity: 1;" vector-effect="non-scaling-stroke"  transform=" translate(-794.44, -99.48)" d="M 807.951 85.9688 C 804.668 94.6774 804.668 104.286 807.951 112.994 C 799.243 109.711 789.634 109.711 780.926 112.994 C 784.209 104.286 784.209 94.6774 780.926 85.9688 C 789.634 89.2521 799.243 89.2521 807.951 85.9688 Z" stroke-linecap="round" />
</g>
<g transform="matrix(1 0 0 1 816.57 428.09)"  >
<path style="stroke: rgb(255,164,255); stroke-width: 2; stroke-dasharray: none; stroke-linecap: butt; stroke-dashoffset: 0; stroke-linejoin: miter; stroke-miterlimit: 4; fill: none; fill-rule: nonzero; opacity: 1;" vector-effect="non-scaling-stroke"  transform=" translate(-698.98, -99.51)" d="M 652 99.5366 L 745.957 99.5366 M 745.957 99.5366 C 737.445 99.5366 722.529 95.5372 722.529 76.1094 M 745.957 99.5366 C 737.471 99.5917 722.504 103.481 722.504 122.909" stroke-linecap="round" />
</g>
<g transform="matrix(1 0 0 1 795.66 683.21)"  >
<path style="stroke: none; stroke-width: 1; stroke-dasharray: none; stroke-linecap: butt; stroke-dashoffset: 0; stroke-linejoin: miter; stroke-miterlimit: 4; fill: rgb(255,255,255); fill-rule: nonzero; opacity: 1;" vector-effect="non-scaling-stroke"  transform=" translate(-678.07, -354.63)" d="M 678.563 356.839 C 679.541 356.391 679.895 355.625 679.342 354.418 L 678.331 352.212 L 676.542 353.031 L 677.361 354.821 L 677.528 354.745 C 678.048 354.507 678.475 354.613 678.675 355.05 C 678.913 355.571 678.664 355.962 678.227 356.162 C 677.977 356.276 677.648 356.326 677.464 356.31 L 677.654 357.054 C 677.889 357.072 678.209 357.001 678.563 356.839 Z" stroke-linecap="round" />
</g>
<g transform="matrix(1 0 0 1.08 507.52 563.93)" style="" id="ad12a1c4-6bae-4623-951e-b410f0350665"  >
		<text xml:space="preserve" font-family="Raleway" font-size="105" font-style="normal" font-weight="900" style="stroke: none; stroke-width: 1; stroke-dasharray: none; stroke-linecap: butt; stroke-dashoffset: 0; stroke-linejoin: miter; stroke-miterlimit: 4; fill: rgb(255,156,247); fill-rule: nonzero; opacity: 1; white-space: pre;" ><tspan x="-151.2" y="32.98" >Archa</tspan></text>
</g>
</svg>